<svg xmlns="http://www.w3.org/2000/svg" width="1130" height="192" viewBox="0 0 1130 192" version="1.1">
    <path d="M 0 81 L 0 162 2.500 162 L 5 162 5 170.500 L 5 179 26.500 179 L 48 179 48 147 L 48 115 68 115 L 88 115 88 138.500 L 88 162 90.500 162 L 93 162 93 170.500 L 93 179 114.500 179 L 136 179 136 143.500 L 136 108 129.500 108 L 123 108 123 100.500 L 123 93 120.500 93 L 118 93 118 88 L 118 83 127 83 L 136 83 136 63.500 L 136 44 129.500 44 L 123 44 123 36.500 L 123 29 120.500 29 L 118 29 118 20.500 L 118 12 112 12 L 106 12 106 6 L 106 0 53 0 L 0 0 0 81 M 141 81 L 141 162 143.500 162 L 146 162 146 170.500 L 146 179 210.884 179 L 275.767 179 276.139 169.250 L 276.511 159.500 276.159 149.750 L 275.807 140 269.903 140 L 264 140 264 132.500 L 264 125 226 125 L 188 125 188 120 L 188 115 214.500 115 L 241 115 241 95.500 L 241 76 235 76 L 229 76 229 68.500 L 229 61 208.500 61 L 188 61 188 56 L 188 51 231.884 51 L 275.767 51 276.139 41.250 L 276.511 31.500 276.159 21.750 L 275.807 12 269.903 12 L 264 12 264 6 L 264 0 202.500 0 L 141 0 141 81 M 299 14.500 L 299 29 290.500 29 L 282 29 281.941 45 L 281.882 61 281.882 95.500 L 281.882 130 281.941 146 L 282 162 284.500 162 L 287 162 287 170.500 L 287 179 308 179 L 329 179 329 147 L 329 115 349.605 115 L 370.211 115 369.914 122.250 L 369.617 129.500 369.808 145.750 L 370 162 372.500 162 L 375 162 375 170.500 L 375 179 396 179 L 417 179 417 111.500 L 417 44 411 44 L 405 44 405 36.500 L 405 29 402 29 L 399 29 399 20.500 L 399 12 393 12 L 387 12 387 6 L 387 0 343 0 L 299 0 299 14.500 M 440 14.500 L 440 29 431 29 L 422 29 422 79.500 L 422 130 425 130 L 428 130 428 138.500 L 428 147 434 147 L 440 147 440 154.500 L 440 162 442.500 162 L 445 162 445 170.500 L 445 179 501.500 179 L 558 179 558 159.500 L 558 140 551.500 140 L 545 140 545 132.500 L 545 125 507.500 125 L 470 125 470 88 L 470 51 514 51 L 558 51 558 31.500 L 558 12 551.500 12 L 545 12 545 6 L 545 0 492.500 0 L 440 0 440 14.500 M 563 81 L 563 162 565.500 162 L 568 162 568 170.500 L 568 179 589.500 179 L 611 179 611 147 L 611 115 631 115 L 651 115 651 138.500 L 651 162 653.500 162 L 656 162 656 170.500 L 656 179 677.500 179 L 699 179 699 95.500 L 699 12 692.500 12 L 686 12 686 6 L 686 0 668.500 0 L 651 0 651 30.500 L 651 61 631 61 L 611 61 611 36.500 L 611 12 604.500 12 L 598 12 598 6 L 598 0 580.500 0 L 563 0 563 81 M 704 49 L 704 98 706.500 98 L 709 98 709 106.500 L 709 115 750.500 115 L 792 115 792 120 L 792 125 748 125 L 704 125 704 143.500 L 704 162 706.500 162 L 709 162 709 170.500 L 709 179 774 179 L 839 179 839.059 170.500 L 839.118 162 839.118 127.500 L 839.118 93 839.059 84.500 L 839 76 833 76 L 827 76 827 68.500 L 827 61 789 61 L 751 61 751 56 L 751 51 794.884 51 L 838.767 51 839.139 41.250 L 839.511 31.500 839.159 21.750 L 838.807 12 832.903 12 L 827 12 827 6 L 827 0 765.500 0 L 704 0 704 49 M 844.945 14.500 L 844.891 29 844.891 79.500 L 844.891 130 844.945 146 L 845 162 847.500 162 L 850 162 850 170.500 L 850 179 906 179 L 962 179 962.192 170.250 L 962.383 161.500 962.086 154.250 L 961.789 147 970.895 147 L 980 147 980 95.500 L 980 44 974 44 L 968 44 968 36.500 L 968 29 965 29 L 962 29 962 20.500 L 962 12 956 12 L 950 12 950 6 L 950 0 897.500 0 L 845 0 844.945 14.500 M 985 81 L 985 162 988 162 L 991 162 991 170.500 L 991 179 1012 179 L 1033 179 1033 147 L 1033 115 1044.500 115 L 1056 115 1056 122.500 L 1056 130 1064.500 130 L 1073 130 1073 146 L 1073 162 1076 162 L 1079 162 1079 170.500 L 1079 179 1100 179 L 1121 179 1121 159.500 L 1121 140 1114.500 140 L 1108 140 1108 132.500 L 1108 125 1105.500 125 L 1103 125 1103 116.500 L 1103 108 1097 108 L 1091 108 1091 100.500 L 1091 93 1088.500 93 L 1086 93 1086 88 L 1086 83 1094.500 83 L 1103 83 1103 67 L 1103 51 1112 51 L 1121 51 1121 31.500 L 1121 12 1114.500 12 L 1108 12 1108 6 L 1108 0 1090.500 0 L 1073 0 1073 14.500 L 1073 29 1064.500 29 L 1056 29 1056 45 L 1056 61 1044.500 61 L 1033 61 1033 36.500 L 1033 12 1026.500 12 L 1020 12 1020 6 L 1020 0 1002.500 0 L 985 0 985 81 M 106 16 L 106 17 109.500 17 L 113 17 113 23 L 113 29 114.500 29 L 116 29 116 22 L 116 15 111 15 L 106 15 106 16 M 264 16 L 264 17 268.027 17 L 272.053 17 271.777 31.750 L 271.500 46.500 241.500 46.729 L 211.500 46.958 197.750 46.979 L 184 47 184 54 L 184 61 185 61 L 186 61 186 55 L 186 49 230 49 L 274 49 274 32 L 274 15 269 15 L 264 15 264 16 M 387 16 L 387 17 391 17 L 395 17 395 23 L 395 29 396 29 L 397 29 397 22 L 397 15 392 15 L 387 15 387 16 M 545.500 16 L 546.118 17 549.559 17 L 553 17 553 31.979 L 553 46.957 522.750 46.959 L 492.500 46.961 478.750 46.981 L 465 47 465 86 L 465 125 466.515 125 L 468.029 125 467.924 93.250 L 467.818 61.500 467.909 55.261 L 468 49.021 511.750 48.761 L 555.500 48.500 555.687 31.750 L 555.875 15 550.378 15 L 544.882 15 545.500 16 M 598 16 L 598 17 602 17 L 606 17 606 39 L 606 61 607 61 L 608 61 608 38 L 608 15 603 15 L 598 15 598 16 M 686 16 L 686 17 690 17 L 694 17 694 95.933 L 694 174.865 677.500 174.947 L 661 175.029 661 168.514 L 661 162 660 162 L 659 162 659 169.500 L 659 177 677.500 177 L 696 177 696 96 L 696 15 691 15 L 686 15 686 16 M 827 16 L 827 17 831.027 17 L 835.053 17 834.777 31.750 L 834.500 46.500 804.500 46.729 L 774.500 46.958 760.750 46.979 L 747 47 747 54 L 747 61 748 61 L 749 61 749 55 L 749 49 793 49 L 837 49 837 32 L 837 15 832 15 L 827 15 827 16 M 950 16 L 950 17 954 17 L 958 17 958 23 L 958 29 959 29 L 960 29 960 22 L 960 15 955 15 L 950 15 950 16 M 1020.500 16 L 1021.118 17 1024.559 17 L 1028 17 1028 39 L 1028 61 1029.489 61 L 1030.977 61 1030.879 38 L 1030.780 15 1025.331 15 L 1019.882 15 1020.500 16 M 1108.500 16 L 1109.118 17 1112.559 17 L 1116 17 1116 32.076 L 1116 47.153 1112.250 46.980 L 1108.500 46.806 1103.133 46.903 L 1097.766 47 1098.056 56.250 L 1098.345 65.500 1098.172 72.250 L 1098 79 1089.500 79 L 1081 79 1081 86 L 1081 93 1082 93 L 1083 93 1083 87 L 1083 81 1092 81 L 1101 81 1101 65.039 L 1101 49.078 1109.750 48.789 L 1118.500 48.500 1118.687 31.750 L 1118.875 15 1113.378 15 L 1107.882 15 1108.500 16 M 106 24 L 106 29 108.500 29 L 111 29 111 24 L 111 19 108.500 19 L 106 19 106 24 M 264 26.500 L 264 34 220 34 L 176 34 176 47.500 L 176 61 178.500 61 L 181 61 181 52.500 L 181 44 225 44 L 269 44 269 31.500 L 269 19 266.500 19 L 264 19 264 26.500 M 387 24 L 387 29 389.500 29 L 392 29 392 24 L 392 19 389.500 19 L 387 19 387 24 M 545 26.500 L 545 34 501.063 34 L 457.125 34 457.125 79.500 L 457.125 125 460.063 125 L 463 125 463 84.500 L 463 44 507 44 L 551 44 551 31.500 L 551 19 548 19 L 545 19 545 26.500 M 598 40 L 598 61 601.010 61 L 604.021 61 603.869 40 L 603.718 19 600.859 19 L 598 19 598 40 M 686 90.500 L 686 162 674.500 162 L 663 162 663 167 L 663 172 677.409 172 L 691.817 172 691.817 95.500 L 691.817 19 688.909 19 L 686 19 686 90.500 M 827 26.500 L 827 34 783 34 L 739 34 739 47.500 L 739 61 741.500 61 L 744 61 744 52.500 L 744 44 788 44 L 832 44 832 31.500 L 832 19 829.500 19 L 827 19 827 26.500 M 950 24 L 950 29 952.500 29 L 955 29 955 24 L 955 19 952.500 19 L 950 19 950 24 M 1020.131 40 L 1019.979 61 1022.990 61 L 1026 61 1026 40 L 1026 19 1023.141 19 L 1020.282 19 1020.131 40 M 1108 26.500 L 1108 34 1099.500 34 L 1091 34 1091 50 L 1091 66 1082 66 L 1073 66 1073 79.500 L 1073 93 1076 93 L 1079 93 1079 84.500 L 1079 76 1087.500 76 L 1096 76 1096 60 L 1096 44 1105 44 L 1114 44 1114 31.500 L 1114 19 1111 19 L 1108 19 1108 26.500 M 35 47.500 L 35 61 38 61 L 41 61 41 52.500 L 41 44 64.500 44 L 88 44 88 39 L 88 34 61.500 34 L 35 34 35 47.500 M 317 47.500 L 317 61 319.500 61 L 322 61 322 52.500 L 322 44 346 44 L 370 44 370 39 L 370 34 343.500 34 L 317 34 317 47.500 M 880 79.500 L 880 125 882.500 125 L 885 125 885 84.500 L 885 44 909 44 L 933 44 933 39 L 933 34 906.500 34 L 880 34 880 79.500 M 56.250 46.778 L 43 47.056 43 54.028 L 43 61 44 61 L 45 61 45 55 L 45 49 66.500 49 L 88 49 88 48.071 L 88 47.142 78.750 46.821 L 69.500 46.500 56.250 46.778 M 123 48 L 123 49 127 49 L 131 49 131 64.076 L 131 79.153 127.250 78.980 L 123.500 78.806 118.250 78.903 L 113 79 113 86 L 113 93 114.500 93 L 116 93 116 87 L 116 81 124.500 81 L 133 81 133 64 L 133 47 128 47 L 123 47 123 48 M 324 54 L 324 61 325.500 61 L 327 61 327 55 L 327 49 347.941 49 L 368.882 49 369.500 48 L 370.118 47 347.059 47 L 324 47 324 54 M 405 48 L 405 49 408.500 49 L 412 49 412.055 55 L 412.109 61 412.109 111.500 L 412.109 162 412.055 168.432 L 412 174.863 396 174.945 L 380 175.027 380 168.514 L 380 162 378.500 162 L 377 162 377 169.500 L 377 177 396 177 L 415 177 415 112 L 415 47 410 47 L 405 47 405 48 M 887.144 86 L 887.076 125 888.538 125 L 890 125 890 87 L 890 49 910.941 49 L 931.882 49 932.500 48 L 933.118 47 910.165 47 L 887.213 47 887.144 86 M 968 48 L 968 49 971.500 49 L 975 49 975.059 55 L 975.118 61 975.118 95.500 L 975.118 130 975.059 136.576 L 975 143.153 971.250 142.980 L 967.500 142.806 962.775 142.903 L 958.051 143 957.775 158.750 L 957.500 174.500 906.250 174.735 L 855 174.971 855 168.485 L 855 162 853.500 162 L 852 162 852 169.500 L 852 177 906 177 L 960 177 960 161 L 960 145 969 145 L 978 145 978 96 L 978 47 973 47 L 968 47 968 48 M 48 56 L 48 61 68 61 L 88 61 88 56 L 88 51 68 51 L 48 51 48 56 M 123 58.500 L 123 66 114.500 66 L 106 66 106 79.500 L 106 93 108.500 93 L 111 93 111 84.500 L 111 76 119.893 76 L 128.786 76 128.786 63.500 L 128.786 51 125.893 51 L 123 51 123 58.500 M 329 56 L 329 61 349.500 61 L 370 61 370 56 L 370 51 349.500 51 L 329 51 329 56 M 405 106.500 L 405 162 393.500 162 L 382 162 382 167 L 382 172 396 172 L 410 172 410 111.500 L 410 51 407.500 51 L 405 51 405 106.500 M 892 88 L 892 125 912.474 125 L 932.948 125 932.849 88 L 932.751 51 912.375 51 L 892 51 892 88 M 968 90.500 L 968 130 959 130 L 950 130 950 146 L 950 162 903.500 162 L 857 162 857 167 L 857 172 906 172 L 955 172 955 156 L 955 140 964 140 L 973 140 973 95.500 L 973 51 970.500 51 L 968 51 968 90.500 M 229 80 L 229 81 232.387 81 L 235.774 81 236.196 88.250 L 236.617 95.500 236.177 103.299 L 235.737 111.097 223.619 110.995 L 211.500 110.892 197.750 110.946 L 184 111 184 118 L 184 125 185 125 L 186 125 186 119 L 186 113 212.500 113 L 239 113 239 96 L 239 79 234 79 L 229 79 229 80 M 827 80 L 827 81 831.010 81 L 835.020 81 834.760 127.750 L 834.500 174.500 774.250 174.750 L 714 175 714 168.500 L 714 162 712.456 162 L 710.912 162 711.206 169.250 L 711.500 176.500 774.250 176.758 L 837 177.015 837 128.008 L 837 79 832 79 L 827 79 827 80 M 229 90.500 L 229 98 202.500 98 L 176 98 176 111.500 L 176 125 178.500 125 L 181 125 181 116.500 L 181 108 207.500 108 L 234 108 234 95.500 L 234 83 231.500 83 L 229 83 229 90.500 M 827 122.500 L 827 162 771.500 162 L 716 162 716 167 L 716 172 774 172 L 832 172 832 127.500 L 832 83 829.500 83 L 827 83 827 122.500 M 35 130 L 35 162 23.500 162 L 12 162 12 167 L 12 172 26.449 172 L 40.897 172 40.861 148.750 L 40.824 125.500 40.912 116.750 L 41 108 64.500 108 L 88 108 88 103 L 88 98 61.500 98 L 35 98 35 130 M 317 130 L 317 162 305.500 162 L 294 162 294 167 L 294 172 308 172 L 322 172 322 140 L 322 108 346 108 L 370 108 370 103 L 370 98 343.500 98 L 317 98 317 130 M 598 130 L 598 162 586.500 162 L 575 162 575 167 L 575 172 589.449 172 L 603.897 172 603.861 148.750 L 603.824 125.500 603.912 116.750 L 604 108 627.500 108 L 651 108 651 103 L 651 98 624.500 98 L 598 98 598 130 M 711.206 105.250 L 711.500 112.500 751.750 112.761 L 792 113.023 792 112.011 L 792 111 783.250 110.973 L 774.500 110.945 744.250 110.999 L 714 111.053 714 104.527 L 714 98 712.456 98 L 710.912 98 711.206 105.250 M 716 103 L 716 108 754 108 L 792 108 792 103 L 792 98 754 98 L 716 98 716 103 M 1020.021 113.750 L 1020.254 129.500 1020.127 145.750 L 1020 162 1009 162 L 998 162 998 167 L 998 172 1012 172 L 1026 172 1026 140 L 1026 108 1041 108 L 1056 108 1056 103 L 1056 98 1037.894 98 L 1019.789 98 1020.021 113.750 M 56.250 110.778 L 43 111.056 43 142.961 L 43 174.865 26.500 174.947 L 10 175.029 10 168.514 L 10 162 9 162 L 8 162 8 169.500 L 8 177 26.500 177 L 45 177 45 145 L 45 113 66.500 113 L 88 113 88 112.071 L 88 111.142 78.750 110.821 L 69.500 110.500 56.250 110.778 M 619.250 110.778 L 606 111.056 606 142.961 L 606 174.865 589.500 174.947 L 573 175.029 573 168.514 L 573 162 572 162 L 571 162 571 169.500 L 571 177 589.500 177 L 608 177 608 145 L 608 113 629.500 113 L 651 113 651 112.071 L 651 111.142 641.750 110.821 L 632.500 110.500 619.250 110.778 M 123 112 L 123 113 127 113 L 131 113 131 143.933 L 131 174.865 114.500 174.947 L 98 175.029 98 168.514 L 98 162 97 162 L 96 162 96 169.500 L 96 177 114.500 177 L 133 177 133 144 L 133 111 128 111 L 123 111 123 112 M 324.119 136.250 L 324.181 161.500 324.091 168.182 L 324 174.863 308 174.945 L 292 175.027 292 168.514 L 292 162 290.500 162 L 289 162 289 169.500 L 289 177 308 177 L 327 177 327 145 L 327 113 347.941 113 L 368.882 113 369.500 112 L 370.118 111 347.088 111 L 324.058 111 324.119 136.250 M 1028 142.956 L 1028 174.912 1011.750 174.706 L 995.500 174.500 995.202 168.250 L 994.905 162 993.952 162 L 993 162 993 169.522 L 993 177.044 1011.750 176.772 L 1030.500 176.500 1030.666 151 L 1030.833 125.500 1030.916 119.250 L 1031 113 1043.500 113 L 1056 113 1056 112 L 1056 111 1042 111 L 1028 111 1028 142.956 M 1091 112 L 1091 113 1094.500 113 L 1098 113 1098 119 L 1098 125 1099.500 125 L 1101 125 1101 118 L 1101 111 1096 111 L 1091 111 1091 112 M 123 138.500 L 123 162 111.500 162 L 100 162 100 167 L 100 172 114.403 172 L 128.806 172 128.806 143.500 L 128.806 115 125.903 115 L 123 115 123 138.500 M 1091 120 L 1091 125 1093.500 125 L 1096 125 1096 120 L 1096 115 1093.500 115 L 1091 115 1091 120 M 430 137.500 L 430 145 435 145 L 440 145 440 144.060 L 440 143.121 436.250 142.810 L 432.500 142.500 432.202 136.250 L 431.905 130 430.952 130 L 430 130 430 137.500 M 435 135 L 435 140 437.500 140 L 440 140 440 135 L 440 130 437.500 130 L 435 130 435 135 M 264 144 L 264 145 268.027 145 L 272.053 145 271.777 159.750 L 271.500 174.500 211.250 174.750 L 151 175 151 168.500 L 151 162 149.456 162 L 147.912 162 148.206 169.250 L 148.500 176.500 211.250 176.758 L 274 177.015 274 160.008 L 274 143 269 143 L 264 143 264 144 M 545.500 144 L 546.118 145 549.559 145 L 553 145 553 159.977 L 553 174.954 501.500 174.945 L 450 174.937 450 168.468 L 450 162 448.456 162 L 446.912 162 447.206 169.250 L 447.500 176.500 501.500 176.500 L 555.500 176.500 555.687 159.750 L 555.875 143 550.378 143 L 544.882 143 545.500 144 M 1108.500 144 L 1109.118 145 1112.559 145 L 1116 145 1116 159.956 L 1116 174.912 1099.750 174.706 L 1083.500 174.500 1083.202 168.250 L 1082.905 162 1081.952 162 L 1081 162 1081 169.522 L 1081 177.044 1099.750 176.772 L 1118.500 176.500 1118.687 159.750 L 1118.875 143 1113.378 143 L 1107.882 143 1108.500 144 M 264 154.500 L 264 162 208.500 162 L 153 162 153 167 L 153 172 211 172 L 269 172 269 159.500 L 269 147 266.500 147 L 264 147 264 154.500 M 545 154.500 L 545 162 498.500 162 L 452 162 452 167 L 452 172 501.500 172 L 551 172 551 159.500 L 551 147 548 147 L 545 147 545 154.500 M 1108 154.500 L 1108 162 1097 162 L 1086 162 1086 167 L 1086 172 1100 172 L 1114 172 1114 159.500 L 1114 147 1111 147 L 1108 147 1108 154.500" stroke="none" fill="#0a0a0a" fill-rule="evenodd"/>
</svg>